<?xml version="1.0" encoding="UTF-8"?>
<svg xmlns="http://www.w3.org/2000/svg" xmlns:xlink="http://www.w3.org/1999/xlink" width="1200" height="308.98" viewBox="0 0 1200 308.98">
  <defs>
    <style>
      .r {
        fill: #5c68d8;
      }

      .r, .s, .t, .u, .v, .w, .x, .y, .z, .aa, .ab, .ac, .ad, .ae, .af, .ag, .ah, .ai, .aj, .ak, .al, .am, .an, .ao, .ap, .aq, .ar, .as, .at, .au, .av, .aw, .ax, .ay, .az, .ba, .bb, .bc, .bd, .be, .bf, .bg, .bh, .bi, .bj, .bk, .bl, .bm, .bn, .bo, .bp, .bq, .br, .bs, .bt, .bu, .bv, .bw, .bx, .by, .bz, .ca, .cb, .cc, .cd, .ce, .cf, .cg, .ch, .ci, .cj, .ck, .cl, .cm, .cn, .co, .cp, .cq, .cr, .cs, .ct, .cu, .cv, .cw, .cx, .cy, .cz, .da, .db, .dc, .dd, .de, .df, .dg, .dh, .di, .dj, .dk, .dl, .dm, .dn, .do, .dp, .dq, .dr, .ds, .dt, .du, .dv, .dw, .dx, .dy, .dz, .ea {
        stroke-width: 0px;
      }

      .s {
        fill: #368ebe;
      }

      .t {
        fill: #10b5a4;
      }

      .u {
        fill: #3c88c2;
      }

      .v {
        fill: #3b89c1;
      }

      .w {
        fill: #477dca;
      }

      .x {
        fill: #13b2a6;
      }

      .y {
        fill: #07be9d;
      }

      .eb {
        clip-path: url(#j);
      }

      .z {
        fill: #3490bd;
      }

      .aa {
        fill: #09bc9f;
      }

      .ab {
        fill: #4c78cd;
      }

      .ac {
        fill: #5470d3;
      }

      .ad {
        fill: #6e57e5;
      }

      .ae {
        fill: #497bcb;
      }

      .af {
        fill: #2d98b8;
      }

      .ag {
        fill: #4a7acc;
      }

      .ah {
        fill: #4084c5;
      }

      .ai {
        fill: #3194ba;
      }

      .aj {
        fill: #576dd5;
      }

      .ak {
        fill: #5f65da;
      }

      .ec {
        clip-path: url(#g);
      }

      .al {
        fill: #1fa6ae;
      }

      .am {
        fill: #4480c8;
      }

      .an {
        fill: #5b69d7;
      }

      .ed {
        isolation: isolate;
      }

      .ao {
        fill: #6d57e5;
      }

      .ap {
        fill: #596bd6;
      }

      .aq {
        fill: #2a9bb6;
      }

      .ar {
        fill: #398bc0;
      }

      .ee {
        clip-path: url(#p);
      }

      .as {
        fill: #03c29b;
      }

      .at {
        fill: #3a8ac1;
      }

      .au {
        fill: #1baaab;
      }

      .ef {
        clip-path: url(#d);
      }

      .av {
        fill: #16afa8;
      }

      .aw {
        fill: #12b3a5;
      }

      .ax {
        fill: #08bd9e;
      }

      .ay {
        fill: #20a5af;
      }

      .eg {
        clip-path: url(#m);
      }

      .az {
        fill: #06bf9d;
      }

      .ba {
        fill: #289db4;
      }

      .bb {
        fill: #14b1a6;
      }

      .eh {
        clip-path: url(#i);
      }

      .bc {
        fill: #655fdf;
      }

      .bd {
        fill: none;
      }

      .be {
        fill: #3095ba;
      }

      .bf {
        fill: #4282c6;
      }

      .bg {
        fill: #467ec9;
      }

      .ei {
        clip-path: url(#b);
      }

      .bh {
        fill: #5d67d9;
      }

      .bi {
        fill: #388cbf;
      }

      .bj {
        fill: #487cca;
      }

      .ej {
        clip-path: url(#e);
      }

      .ek {
        clip-path: url(#f);
      }

      .bk {
        fill: #6163dc;
      }

      .bl {
        fill: #4d77ce;
      }

      .bm {
        fill: #02c39a;
      }

      .bn {
        fill: #6262dc;
      }

      .bo {
        fill: #25a0b2;
      }

      .bp {
        fill: #6c58e4;
      }

      .bq {
        fill: #6361dd;
      }

      .br {
        fill: #3e86c3;
      }

      .bs {
        fill: #1ea7ad;
      }

      .bt {
        fill: #279eb4;
      }

      .el {
        clip-path: url(#o);
      }

      .bu {
        fill: #cac6e4;
      }

      .bv {
        fill: #1ca9ac;
      }

      .bw {
        fill: #4183c6;
      }

      .em {
        clip-path: url(#n);
      }

      .bx {
        fill: #556fd3;
      }

      .by {
        fill: #665ee0;
      }

      .en {
        clip-path: url(#q);
      }

      .bz {
        fill: #5074d0;
      }

      .ca {
        fill: #19acaa;
      }

      .eo {
        clip-path: url(#k);
      }

      .cb {
        fill: #2c99b7;
      }

      .cc {
        fill: #0eb7a2;
      }

      .cd {
        fill: #0abba0;
      }

      .ce {
        fill: #269fb3;
      }

      .cf {
        fill: #3293bb;
      }

      .cg {
        fill: #378dbf;
      }

      .ch {
        fill: #3391bc;
      }

      .ci {
        fill: #22a3b0;
      }

      .cj {
        fill: #6460de;
      }

      .ck {
        fill: #6a5ae2;
      }

      .cl {
        fill: #5a6ad7;
      }

      .ep {
        clip-path: url(#c);
      }

      .cm {
        fill: #21a4af;
      }

      .cn {
        fill: #4b79cc;
      }

      .co {
        fill: #358fbd;
      }

      .cp {
        fill: #566ed4;
      }

      .cq {
        fill: #457fc8;
      }

      .cr {
        fill: #45edcb;
      }

      .cs {
        fill: #cac8ee;
      }

      .ct {
        fill: #11b4a4;
      }

      .cu {
        fill: #2f96b9;
      }

      .cv {
        fill: #3d87c3;
      }

      .cw {
        fill: #5371d2;
      }

      .cx {
        fill: #0fb6a3;
      }

      .cy {
        fill: #4381c7;
      }

      .cz {
        fill: #4f75cf;
      }

      .da {
        fill: #5173d1;
      }

      .db {
        fill: #2e9ab5;
      }

      .dc {
        fill: #18ada9;
      }

      .dd {
        fill: #3f85c4;
      }

      .eq {
        clip-path: url(#h);
      }

      .de {
        fill: #6064db;
      }

      .df {
        fill: #5272d1;
      }

      .dg {
        fill: #5e66da;
      }

      .dh {
        fill: #24a1b1;
      }

      .di {
        fill: #17aea9;
      }

      .dj {
        fill: #0bbaa0;
      }

      .dk {
        fill: #6b59e3;
      }

      .dl {
        fill: #2e97b8;
      }

      .dm {
        fill: #695be1;
      }

      .dn {
        fill: #299cb5;
      }

      .do {
        fill: #05c09c;
      }

      .dp {
        fill: #586cd5;
      }

      .dq {
        fill: #15b0a7;
      }

      .dr {
        fill: #1aabab;
      }

      .ds {
        fill: #4e76ce;
      }

      .dt {
        fill: #23a2b1;
      }

      .du {
        fill: #0db8a2;
      }

      .dv {
        fill: #675de1;
      }

      .dw {
        fill: #1da8ad;
      }

      .dx {
        fill: #72c2b5;
      }

      .dy {
        fill: #0cb9a1;
      }

      .dz {
        fill: #2b9ab6;
      }

      .ea {
        fill: #04c19b;
      }
    </style>
    <clipPath id="b">
      <path class="bd" d="M58.23,147.9c-6.96,0-13.43,1.65-19.4,4.96-5.97,3.3-10.73,7.74-14.27,13.31-3.54,5.57-5.31,11.6-5.31,18.1v66.47c0,6.5,1.77,12.53,5.31,18.09,3.54,5.57,8.29,10.01,14.27,13.31,5.97,3.31,12.44,4.96,19.4,4.96h48.89v-7.31h-49.07c-5.68,0-10.93-1.31-15.74-3.92-4.82-2.61-8.65-6.18-11.49-10.7-2.84-4.53-4.26-9.45-4.26-14.79v-65.77c0-5.33,1.42-10.26,4.26-14.79s6.67-8.09,11.49-10.7c4.81-2.61,10.06-3.92,15.74-3.92h49.07v-7.31h-48.89Z"></path>
    </clipPath>
    <clipPath id="c">
      <path class="bd" d="M138.44,182.7v7.31h39.85c3.83,0,7.33.93,10.53,2.78,3.19,1.86,5.71,4.38,7.57,7.57,1.85,3.19,2.78,6.64,2.78,10.35v48.37c0,3.72-.93,7.17-2.78,10.35-1.86,3.19-4.38,5.72-7.57,7.57-3.2,1.86-6.7,2.79-10.53,2.79h-29.24c-3.59,0-7.02-1.07-10.26-3.22-3.25-2.14-5.8-4.93-7.65-8.35-1.86-3.42-2.79-6.99-2.79-10.7,0-7.19,1.94-12.7,5.83-16.53,3.89-3.83,8.84-5.74,14.87-5.74h43.15v-7.48h-42.81c-5.22,0-10.01,1.19-14.35,3.57-4.35,2.38-7.77,5.8-10.27,10.27-2.5,4.47-3.74,9.77-3.74,15.92,0,5.11,1.28,9.92,3.83,14.44s6.03,8.18,10.44,10.96c4.41,2.78,9.11,4.18,14.1,4.18h28.89c4.99,0,9.66-1.24,14.01-3.74,4.35-2.49,7.83-5.88,10.44-10.18,2.61-4.29,3.92-8.93,3.92-13.92v-48.72c0-4.99-1.31-9.6-3.92-13.83-2.61-4.23-6.09-7.62-10.44-10.18-4.35-2.55-9.02-3.83-14.01-3.83h-39.85Z"></path>
    </clipPath>
    <clipPath id="d">
      <path class="bd" d="M380.54,182.7c-5.34,0-10.3,1.28-14.88,3.83-4.58,2.55-8.21,5.95-10.87,10.18-2.67,4.24-4,8.85-4,13.83v48.72c0,4.99,1.33,9.63,4,13.92,2.67,4.29,6.29,7.68,10.87,10.18,4.58,2.5,9.54,3.74,14.88,3.74h40.02v-7.31h-40.72c-3.83,0-7.42-.93-10.79-2.79-3.36-1.85-6.03-4.38-8-7.57-1.97-3.19-2.96-6.64-2.96-10.35v-48.37c0-3.71.98-7.16,2.96-10.35,1.97-3.19,4.64-5.71,8-7.57,3.36-1.85,6.96-2.78,10.79-2.78h40.72v-7.31h-40.02Z"></path>
    </clipPath>
    <clipPath id="e">
      <path class="bd" d="M463.71,182.7c-4.99,0-9.66,1.28-14.01,3.83-4.35,2.55-7.8,5.95-10.35,10.18-2.55,4.24-3.83,8.85-3.83,13.83v48.72c0,4.99,1.27,9.6,3.83,13.83,2.55,4.24,6,7.63,10.35,10.18,4.35,2.55,9.02,3.83,14.01,3.83h46.81v-7.31h-46.98c-3.83,0-7.34-.93-10.53-2.79-3.19-1.85-5.72-4.38-7.57-7.57-1.86-3.19-2.79-6.64-2.79-10.35v-48.37c0-3.71.93-7.16,2.79-10.35,1.85-3.19,4.38-5.71,7.57-7.57,3.19-1.85,6.7-2.78,10.53-2.78h29.23c3.71,0,7.16,1.08,10.35,3.22,3.19,2.15,5.74,4.93,7.66,8.35,1.91,3.42,2.87,6.99,2.87,10.7,0,7.19-1.97,12.7-5.92,16.53-3.94,3.83-8.93,5.74-14.96,5.74h-42.98v7.48h42.98c5.1,0,9.8-1.19,14.09-3.57,4.29-2.38,7.71-5.8,10.27-10.27,2.55-4.46,3.83-9.77,3.83-15.92,0-4.99-1.31-9.77-3.92-14.36-2.61-4.58-6.06-8.26-10.35-11.05-4.3-2.78-8.94-4.18-13.92-4.18h-29.06Z"></path>
    </clipPath>
    <clipPath id="f">
      <path class="bd" d="M572.81,182.7c-5.57,0-10.65,1.25-15.23,3.74-4.58,2.5-8.24,5.8-10.96,9.92-2.73,4.12-4.09,8.61-4.09,13.49v77.26h7.31v-77.08c0-3.71,1.05-7.11,3.13-10.18,2.09-3.07,4.9-5.48,8.44-7.22,3.53-1.74,7.34-2.61,11.4-2.61h33.93v-7.31h-33.93Z"></path>
    </clipPath>
    <clipPath id="g">
      <path class="bd" d="M666.25,147.9c-6.96,0-13.31,1.65-19.05,4.96-5.74,3.3-10.3,7.74-13.66,13.31-3.37,5.57-5.05,11.66-5.05,18.27s1.68,12.73,5.05,18.36c3.36,5.63,7.95,10.09,13.75,13.4,5.8,3.3,12.12,4.96,18.97,4.96h29.06c5.45,0,10.5,1.34,15.14,4,4.64,2.67,8.32,6.24,11.05,10.7,2.73,4.47,4.09,9.37,4.09,14.7s-1.36,10.24-4.09,14.7c-2.73,4.47-6.38,8-10.96,10.61-4.58,2.61-9.66,3.92-15.22,3.92h-57.6v7.31h57.6c6.72,0,12.99-1.65,18.79-4.96,5.8-3.3,10.38-7.77,13.75-13.4,3.36-5.62,5.05-11.68,5.05-18.18s-1.69-12.73-5.05-18.36c-3.36-5.63-7.95-10.09-13.75-13.4-5.8-3.31-12.07-4.96-18.79-4.96h-29.23c-5.45,0-10.5-1.3-15.14-3.91-4.64-2.61-8.32-6.18-11.05-10.7-2.73-4.52-4.09-9.45-4.09-14.79s1.36-10.24,4.09-14.71c2.72-4.46,6.41-8,11.05-10.61,4.64-2.61,9.69-3.92,15.14-3.92h58.98v-7.31h-58.81Z"></path>
    </clipPath>
    <clipPath id="h">
      <path class="bd" d="M781.79,182.7c-5.34,0-10.3,1.28-14.88,3.83-4.58,2.55-8.21,5.95-10.88,10.18-2.67,4.24-4,8.85-4,13.83v48.72c0,4.99,1.33,9.63,4,13.92,2.67,4.29,6.29,7.68,10.88,10.18,4.58,2.5,9.54,3.74,14.88,3.74h40.02v-7.31h-40.72c-3.83,0-7.42-.93-10.79-2.79-3.37-1.85-6.03-4.38-8-7.57-1.97-3.19-2.96-6.64-2.96-10.35v-48.37c0-3.71.99-7.16,2.96-10.35,1.97-3.19,4.64-5.71,8-7.57,3.36-1.85,6.96-2.78,10.79-2.78h40.72v-7.31h-40.02Z"></path>
    </clipPath>
    <clipPath id="i">
      <path class="bd" d="M856.61,182.7v7.31h39.85c3.83,0,7.34.93,10.53,2.78,3.19,1.86,5.71,4.38,7.57,7.57,1.85,3.19,2.78,6.64,2.78,10.35v48.37c0,3.72-.93,7.17-2.78,10.35-1.86,3.19-4.38,5.72-7.57,7.57-3.19,1.86-6.7,2.79-10.53,2.79h-29.23c-3.6,0-7.02-1.07-10.27-3.22-3.25-2.14-5.8-4.93-7.65-8.35-1.86-3.42-2.79-6.99-2.79-10.7,0-7.19,1.94-12.7,5.83-16.53,3.88-3.83,8.84-5.74,14.88-5.74h43.15v-7.48h-42.8c-5.22,0-10,1.19-14.36,3.57-4.35,2.38-7.77,5.8-10.26,10.27-2.5,4.47-3.74,9.77-3.74,15.92,0,5.11,1.27,9.92,3.83,14.44,2.55,4.52,6.03,8.18,10.44,10.96,4.41,2.78,9.11,4.18,14.1,4.18h28.88c4.99,0,9.66-1.24,14.01-3.74,4.35-2.49,7.83-5.88,10.44-10.18,2.61-4.29,3.92-8.93,3.92-13.92v-48.72c0-4.99-1.31-9.6-3.92-13.83-2.61-4.23-6.09-7.62-10.44-10.18-4.35-2.55-9.02-3.83-14.01-3.83h-39.85Z"></path>
    </clipPath>
    <clipPath id="j">
      <path class="bd" d="M954.74,182.7c-1.04,0-1.94.35-2.7,1.05-.76.7-1.13,1.57-1.13,2.61v100.75h7.31v-97.09h32.57c3.83,0,7.39.93,10.7,2.78,3.31,1.86,5.92,4.35,7.83,7.48,1.92,3.13,42.77,86.83,42.77,86.83h7.31s-41.18-86.19-43.72-90.48c-2.55-4.29-6.07-7.68-10.53-10.18-4.46-2.49-9.31-3.74-14.53-3.74h-35.87Z"></path>
    </clipPath>
    <clipPath id="k">
      <path class="bd" d="M236.58,182.7c-1.04,0-1.95.35-2.7,1.05-.75.7-1.13,1.57-1.13,2.61v100.75h7.31v-97.09h32.57c3.83,0,7.4.93,10.7,2.78,3.3,1.86,5.92,4.35,7.83,7.48,1.92,3.13,42.77,86.83,42.77,86.83h7.31s-41.18-86.19-43.72-90.48c-2.55-4.29-6.06-7.68-10.53-10.18-4.47-2.49-9.31-3.74-14.53-3.74h-35.87Z"></path>
    </clipPath>
    <clipPath id="m">
      <path class="bd" d="M972.08,153.81l-27.54-47.94,27.75-47.82,55.28.12,27.54,47.94-8.66,14.92h0s-10.43,17.98-10.43,17.98t0,0l-8.65,14.92-55.29-.12ZM1027.59,51.3l-55.36-.12-17.01-29.31-5.94,3.45,17.03,29.35-27.71,47.76h-34.03v6.87h34.01l29.51,51.37,59.25.13,8.59,14.96c.63,1.11,1.79,1.72,2.98,1.72.58,0,1.17-.15,1.71-.46,1.64-.94,2.21-3.04,1.27-4.69l-8.59-14.96,7.88-13.58,11.21-19.31s0,0,0,0l7.03-12.11,1.63-2.8,17.25.04h0c1.89,0,3.43-1.53,3.43-3.43,0-1.9-1.53-3.44-3.43-3.44l-17.24-.04-27.54-47.94,17.07-29.43-5.94-3.45-17.07,29.43Z"></path>
    </clipPath>
    <clipPath id="n">
      <path class="bd" d="M1047.57,189.09c-1.65.94-2.21,3.04-1.27,4.69l9.58,16.67c.61,1.07,1.74,1.72,2.97,1.72l19.23.04h0c1.9,0,3.43-1.53,3.44-3.43,0-1.12-.54-2.12-1.37-2.75-.03-.02-.05-.04-.08-.06-.56-.4-1.24-.63-1.98-.63l-17.25-.04-8.59-14.96c-.63-1.11-1.79-1.72-2.98-1.72-.58,0-1.17.15-1.71.46"></path>
    </clipPath>
    <clipPath id="o">
      <path class="bd" d="M1132.05,76.16l-15.47,26.65-17.47-.04h0c-1.89,0-3.43,1.53-3.44,3.43,0,1.9,1.53,3.44,3.43,3.44l17.25.04,8.59,14.96c.64,1.11,1.79,1.72,2.98,1.72.58,0,1.17-.15,1.7-.45,1.65-.94,2.21-3.04,1.27-4.69l-8.48-14.76,15.58-26.85c.88-1.52.47-3.43-.89-4.46-.03-.02-.06-.05-.1-.07-.08-.06-.17-.11-.26-.16-.54-.31-1.13-.46-1.72-.46-1.19,0-2.34.61-2.97,1.71"></path>
    </clipPath>
    <clipPath id="p">
      <path class="bd" d="M1124.79,190.52l-8.66,14.92-17.25-.04h0c-1.9,0-3.43,1.53-3.44,3.43,0,1.9,1.53,3.44,3.43,3.44l17.27.04,13.66,23.9c.64,1.11,1.79,1.73,2.99,1.73.58,0,1.16-.15,1.7-.45.42-.24.77-.56,1.04-.92.02-.02.03-.05.05-.07.75-1.06.87-2.49.18-3.69l-13.68-23.93,8.65-14.9c.87-1.5.48-3.39-.86-4.43-.06-.05-.12-.09-.18-.14-.07-.04-.13-.09-.2-.13-.54-.31-1.13-.46-1.72-.46-1.19,0-2.34.61-2.98,1.71"></path>
    </clipPath>
    <clipPath id="q">
      <path class="bd" d="M1136.56,137.97c-1.65.94-2.21,3.04-1.27,4.69l8.59,14.96-8.66,14.92c-.95,1.64-.39,3.74,1.25,4.69.54.31,1.14.46,1.72.46,1.18,0,2.34-.61,2.97-1.71l8.66-14.93h27.49c1.11,0,2.1-.53,2.73-1.34.04-.05.07-.09.1-.14.38-.55.61-1.22.61-1.95,0-1.9-1.54-3.44-3.44-3.44h-27.49s-8.58-14.94-8.58-14.94c-.64-1.11-1.79-1.72-2.98-1.72-.58,0-1.17.15-1.7.46"></path>
    </clipPath>
  </defs>
  <g id="a" data-name="Ebene 2">
    <g>
      <g class="ed">
        <g class="ei">
          <rect class="ao" x="19.25" y="147.9" width="20.93" height="139.2"></rect>
          <rect class="bp" x="40.18" y="147.9" width="37.39" height="139.2"></rect>
          <rect class="dk" x="77.57" y="147.9" width="29.55" height="139.2"></rect>
        </g>
      </g>
      <g class="ed">
        <g class="ep">
          <rect class="ck" x="121.04" y="182.7" width="31.31" height="104.4"></rect>
          <rect class="dm" x="152.35" y="182.7" width="37.39" height="104.4"></rect>
          <rect class="dv" x="189.74" y="182.7" width="16.91" height="104.4"></rect>
        </g>
      </g>
      <g class="ed">
        <g class="ef">
          <rect class="bq" x="350.79" y="182.7" width="25.91" height="104.4"></rect>
          <rect class="bq" x="376.7" y="182.7" width="4.73" height="104.4"></rect>
          <rect class="bn" x="381.43" y="182.7" width="4.73" height="104.4"></rect>
          <rect class="bk" x="386.16" y="182.7" width="4.73" height="104.4"></rect>
          <rect class="de" x="390.89" y="182.7" width="4.73" height="104.4"></rect>
          <rect class="ak" x="395.63" y="182.7" width="4.73" height="104.4"></rect>
          <rect class="dg" x="400.36" y="182.7" width="4.73" height="104.4"></rect>
          <rect class="bh" x="405.09" y="182.7" width="4.73" height="104.4"></rect>
          <rect class="r" x="409.82" y="182.7" width="4.73" height="104.4"></rect>
          <rect class="an" x="414.55" y="182.7" width="4.73" height="104.4"></rect>
          <rect class="cl" x="419.29" y="182.7" width="1.27" height="104.4"></rect>
        </g>
      </g>
      <g class="ed">
        <g class="ej">
          <rect class="aj" x="435.53" y="182.7" width="2.69" height="104.4"></rect>
          <rect class="cp" x="438.22" y="182.7" width="4.73" height="104.4"></rect>
          <rect class="bx" x="442.95" y="182.7" width="4.73" height="104.4"></rect>
          <rect class="ac" x="447.68" y="182.7" width="4.73" height="104.4"></rect>
          <rect class="cw" x="452.41" y="182.7" width="4.73" height="104.4"></rect>
          <rect class="df" x="457.14" y="182.7" width="4.73" height="104.4"></rect>
          <rect class="da" x="461.88" y="182.7" width="4.73" height="104.4"></rect>
          <rect class="bz" x="466.61" y="182.7" width="4.73" height="104.4"></rect>
          <rect class="cz" x="471.34" y="182.7" width="4.73" height="104.4"></rect>
          <rect class="ds" x="476.07" y="182.7" width="4.73" height="104.4"></rect>
          <rect class="bl" x="480.81" y="182.7" width="4.73" height="104.4"></rect>
          <rect class="ab" x="485.54" y="182.7" width="4.73" height="104.4"></rect>
          <rect class="cn" x="490.27" y="182.7" width="4.73" height="104.4"></rect>
          <rect class="ag" x="495" y="182.7" width="4.73" height="104.4"></rect>
          <rect class="ae" x="499.74" y="182.7" width="4.73" height="104.4"></rect>
          <rect class="bj" x="504.47" y="182.7" width="4.73" height="104.4"></rect>
          <rect class="w" x="509.2" y="182.7" width="4.73" height="104.4"></rect>
          <rect class="bg" x="513.93" y="182.7" width="4.73" height="104.4"></rect>
          <rect class="cq" x="518.66" y="182.7" width="2.3" height="104.4"></rect>
        </g>
      </g>
      <g class="ed">
        <g class="ek">
          <rect class="ah" x="542.54" y="182.7" width="4.52" height="104.4"></rect>
          <rect class="dd" x="547.06" y="182.7" width="4.73" height="104.4"></rect>
          <rect class="br" x="551.79" y="182.7" width="4.73" height="104.4"></rect>
          <rect class="cv" x="556.52" y="182.7" width="4.73" height="104.4"></rect>
          <rect class="u" x="561.25" y="182.7" width="4.73" height="104.4"></rect>
          <rect class="v" x="565.99" y="182.7" width="4.73" height="104.4"></rect>
          <rect class="at" x="570.72" y="182.7" width="4.73" height="104.4"></rect>
          <rect class="ar" x="575.45" y="182.7" width="4.73" height="104.4"></rect>
          <rect class="bi" x="580.18" y="182.7" width="4.73" height="104.4"></rect>
          <rect class="cg" x="584.92" y="182.7" width="4.73" height="104.4"></rect>
          <rect class="s" x="589.65" y="182.7" width="4.73" height="104.4"></rect>
          <rect class="co" x="594.38" y="182.7" width="4.73" height="104.4"></rect>
          <rect class="z" x="599.11" y="182.7" width="4.73" height="104.4"></rect>
          <rect class="ch" x="603.84" y="182.7" width="2.9" height="104.4"></rect>
        </g>
      </g>
      <g class="ed">
        <g class="ec">
          <rect class="dl" x="628.49" y="147.9" width="3.75" height="139.2"></rect>
          <rect class="af" x="632.24" y="147.9" width="4.73" height="139.2"></rect>
          <rect class="cb" x="636.97" y="147.9" width="4.73" height="139.2"></rect>
          <rect class="dz" x="641.7" y="147.9" width="4.73" height="139.2"></rect>
          <rect class="aq" x="646.43" y="147.9" width="4.73" height="139.2"></rect>
          <rect class="dn" x="651.17" y="147.9" width="4.73" height="139.2"></rect>
          <rect class="ba" x="655.9" y="147.9" width="4.73" height="139.2"></rect>
          <rect class="bt" x="660.63" y="147.9" width="4.73" height="139.2"></rect>
          <rect class="ce" x="665.36" y="147.9" width="4.73" height="139.2"></rect>
          <rect class="bo" x="670.1" y="147.9" width="4.73" height="139.2"></rect>
          <rect class="dh" x="674.83" y="147.9" width="4.73" height="139.2"></rect>
          <rect class="dt" x="679.56" y="147.9" width="4.73" height="139.2"></rect>
          <rect class="ci" x="684.29" y="147.9" width="4.73" height="139.2"></rect>
          <rect class="cm" x="689.02" y="147.9" width="4.73" height="139.2"></rect>
          <rect class="ay" x="693.76" y="147.9" width="4.73" height="139.2"></rect>
          <rect class="al" x="698.49" y="147.9" width="4.73" height="139.2"></rect>
          <rect class="bs" x="703.22" y="147.9" width="4.73" height="139.2"></rect>
          <rect class="dw" x="707.95" y="147.9" width="4.73" height="139.2"></rect>
          <rect class="bv" x="712.69" y="147.9" width="4.73" height="139.2"></rect>
          <rect class="au" x="717.42" y="147.9" width="4.73" height="139.2"></rect>
          <rect class="dr" x="722.15" y="147.9" width="4.73" height="139.2"></rect>
          <rect class="ca" x="726.88" y="147.9" width="4.73" height="139.2"></rect>
          <rect class="dc" x="731.61" y="147.9" width="1.28" height="139.2"></rect>
        </g>
      </g>
      <g class="ed">
        <g class="eq">
          <rect class="bb" x="752.03" y="182.7" width="3.24" height="104.4"></rect>
          <rect class="x" x="755.28" y="182.7" width="4.73" height="104.4"></rect>
          <rect class="aw" x="760.01" y="182.7" width="4.73" height="104.4"></rect>
          <rect class="ct" x="764.74" y="182.7" width="4.73" height="104.4"></rect>
          <rect class="t" x="769.47" y="182.7" width="4.73" height="104.4"></rect>
          <rect class="cx" x="774.21" y="182.7" width="4.73" height="104.4"></rect>
          <rect class="cc" x="778.94" y="182.7" width="4.73" height="104.4"></rect>
          <rect class="du" x="783.67" y="182.7" width="4.73" height="104.4"></rect>
          <rect class="dy" x="788.4" y="182.7" width="4.73" height="104.4"></rect>
          <rect class="dj" x="793.13" y="182.7" width="4.73" height="104.4"></rect>
          <rect class="cd" x="797.87" y="182.7" width="4.73" height="104.4"></rect>
          <rect class="aa" x="802.6" y="182.7" width="4.73" height="104.4"></rect>
          <rect class="ax" x="807.33" y="182.7" width="4.73" height="104.4"></rect>
          <rect class="y" x="812.06" y="182.7" width="4.73" height="104.4"></rect>
          <rect class="az" x="816.8" y="182.7" width="4.73" height="104.4"></rect>
          <rect class="do" x="821.53" y="182.7" width=".28" height="104.4"></rect>
        </g>
      </g>
      <g class="ed">
        <g class="eh">
          <rect class="bm" x="839.21" y="182.7" width="1.25" height="104.4"></rect>
          <rect class="bm" x="840.46" y="182.7" width="84.36" height="104.4"></rect>
        </g>
      </g>
      <g class="ed">
        <g class="eb">
          <rect class="bm" x="950.92" y="182.7" width="89.54" height="104.4"></rect>
          <rect class="bm" x="1040.45" y="182.7" width="18.95" height="104.4"></rect>
        </g>
      </g>
      <g class="ed">
        <g class="eo">
          <rect class="by" x="232.75" y="182.7" width="31.77" height="104.4"></rect>
          <rect class="bc" x="264.52" y="182.7" width="37.39" height="104.4"></rect>
          <rect class="cj" x="301.92" y="182.7" width="37.39" height="104.4"></rect>
          <rect class="bq" x="339.31" y="182.7" width="1.93" height="104.4"></rect>
        </g>
      </g>
    </g>
  </g>
  <g id="l" data-name="Ebene 1">
    <g class="ed">
      <g class="eg">
        <polygon class="ao" points="960.68 21.88 904.58 105.96 904.58 21.88 960.68 21.88"></polygon>
        <polygon class="ao" points="971.71 21.88 905.41 121.24 904.58 120.69 904.58 105.96 960.68 21.88 971.71 21.88"></polygon>
        <polygon class="bp" points="982.75 21.88 913.04 126.34 905.41 121.24 971.71 21.88 982.75 21.88"></polygon>
        <polygon class="dk" points="993.78 21.88 920.68 131.43 913.04 126.34 982.75 21.88 993.78 21.88"></polygon>
        <polygon class="ck" points="1004.81 21.88 928.31 136.53 920.68 131.43 993.78 21.88 1004.81 21.88"></polygon>
        <polygon class="dm" points="1015.85 21.88 935.95 141.62 928.31 136.53 1004.81 21.88 1015.85 21.88"></polygon>
        <polygon class="dv" points="1026.88 21.88 943.58 146.71 935.95 141.62 1015.85 21.88 1026.88 21.88"></polygon>
        <polygon class="by" points="1037.91 21.88 951.22 151.81 943.58 146.71 1026.88 21.88 1037.91 21.88"></polygon>
        <polygon class="bc" points="1048.95 21.88 958.85 156.9 951.22 151.81 1037.91 21.88 1048.95 21.88"></polygon>
        <polygon class="cj" points="1049.04 21.88 1056.61 26.93 966.49 162 958.85 156.9 1048.95 21.88 1049.04 21.88"></polygon>
        <rect class="bq" x="934.18" y="92.42" width="162.37" height="9.18" transform="translate(371.1 887.77) rotate(-56.29)"></rect>
        <rect class="bq" x="938.48" y="99.3" width="162.37" height="1.16" transform="translate(370.63 892.63) rotate(-56.29)"></rect>
        <rect class="bn" x="939.45" y="99.94" width="162.37" height="1.16" transform="translate(370.52 893.72) rotate(-56.29)"></rect>
        <rect class="bk" x="940.41" y="100.59" width="162.37" height="1.16" transform="translate(370.42 894.81) rotate(-56.29)"></rect>
        <rect class="de" x="941.38" y="101.23" width="162.37" height="1.16" transform="translate(370.31 895.9) rotate(-56.29)"></rect>
        <rect class="ak" x="942.34" y="101.88" width="162.37" height="1.16" transform="translate(370.2 896.99) rotate(-56.29)"></rect>
        <rect class="dg" x="943.31" y="102.52" width="162.37" height="1.16" transform="translate(370.1 898.08) rotate(-56.29)"></rect>
        <rect class="bh" x="944.28" y="103.17" width="162.37" height="1.16" transform="translate(369.99 899.17) rotate(-56.29)"></rect>
        <rect class="r" x="945.24" y="103.81" width="162.37" height="1.16" transform="translate(369.88 900.26) rotate(-56.29)"></rect>
        <rect class="an" x="946.21" y="104.46" width="162.37" height="1.16" transform="translate(369.78 901.35) rotate(-56.29)"></rect>
        <rect class="cl" x="947.18" y="105.1" width="162.37" height="1.16" transform="translate(369.67 902.44) rotate(-56.29)"></rect>
        <rect class="ap" x="948.14" y="105.75" width="162.37" height="1.16" transform="translate(369.57 903.53) rotate(-56.29)"></rect>
        <rect class="dp" x="949.11" y="106.39" width="162.37" height="1.16" transform="translate(369.46 904.62) rotate(-56.29)"></rect>
        <rect class="aj" x="950.07" y="107.04" width="162.37" height="1.16" transform="translate(369.35 905.71) rotate(-56.29)"></rect>
        <rect class="cp" x="951.04" y="107.68" width="162.37" height="1.16" transform="translate(369.25 906.8) rotate(-56.29)"></rect>
        <rect class="bx" x="952.01" y="108.33" width="162.37" height="1.16" transform="translate(369.14 907.89) rotate(-56.29)"></rect>
        <rect class="ac" x="952.97" y="108.97" width="162.37" height="1.16" transform="translate(369.03 908.99) rotate(-56.29)"></rect>
        <polygon class="cw" points="1079.71 42.34 1080.67 42.98 990.93 177.48 989.69 177.48 989.58 177.41 1079.71 42.34"></polygon>
        <polygon class="df" points="1080.67 42.98 1081.64 43.63 992.33 177.48 990.93 177.48 1080.67 42.98"></polygon>
        <polygon class="da" points="1081.64 43.63 1081.75 43.7 1081.75 45.56 993.72 177.48 992.33 177.48 1081.64 43.63"></polygon>
        <polygon class="bz" points="1081.75 47.65 995.12 177.48 993.72 177.48 1081.75 45.56 1081.75 47.65"></polygon>
        <polygon class="cz" points="1081.75 49.74 996.52 177.48 995.12 177.48 1081.75 47.65 1081.75 49.74"></polygon>
        <polygon class="ds" points="1081.75 51.84 997.91 177.48 996.52 177.48 1081.75 49.74 1081.75 51.84"></polygon>
        <polygon class="bl" points="1081.75 53.93 999.31 177.48 997.91 177.48 1081.75 51.84 1081.75 53.93"></polygon>
        <polygon class="ab" points="1081.75 56.02 1000.71 177.48 999.31 177.48 1081.75 53.93 1081.75 56.02"></polygon>
        <polygon class="cn" points="1081.75 58.12 1002.1 177.48 1000.71 177.48 1081.75 56.02 1081.75 58.12"></polygon>
        <polygon class="ag" points="1081.75 60.21 1003.5 177.48 1002.1 177.48 1081.75 58.12 1081.75 60.21"></polygon>
        <polygon class="ae" points="1081.75 62.3 1004.9 177.48 1003.5 177.48 1081.75 60.21 1081.75 62.3"></polygon>
        <polygon class="bj" points="1081.75 64.39 1006.29 177.48 1004.9 177.48 1081.75 62.3 1081.75 64.39"></polygon>
        <polygon class="w" points="1081.75 66.49 1007.69 177.48 1006.29 177.48 1081.75 64.39 1081.75 66.49"></polygon>
        <polygon class="bg" points="1081.75 68.58 1009.08 177.48 1007.69 177.48 1081.75 66.49 1081.75 68.58"></polygon>
        <polygon class="cq" points="1081.75 70.67 1010.48 177.48 1009.08 177.48 1081.75 68.58 1081.75 70.67"></polygon>
        <polygon class="am" points="1081.75 72.77 1011.88 177.48 1010.48 177.48 1081.75 70.67 1081.75 72.77"></polygon>
        <polygon class="cy" points="1081.75 74.86 1013.27 177.48 1011.88 177.48 1081.75 72.77 1081.75 74.86"></polygon>
        <polygon class="bf" points="1081.75 76.95 1014.67 177.48 1013.27 177.48 1081.75 74.86 1081.75 76.95"></polygon>
        <polygon class="bw" points="1081.75 79.04 1016.07 177.48 1014.67 177.48 1081.75 76.95 1081.75 79.04"></polygon>
        <polygon class="ah" points="1081.75 81.14 1017.46 177.48 1016.07 177.48 1081.75 79.04 1081.75 81.14"></polygon>
        <polygon class="dd" points="1081.75 83.23 1018.86 177.48 1017.46 177.48 1081.75 81.14 1081.75 83.23"></polygon>
        <polygon class="br" points="1081.75 85.32 1020.26 177.48 1018.86 177.48 1081.75 83.23 1081.75 85.32"></polygon>
        <polygon class="cv" points="1081.75 87.42 1021.65 177.48 1020.26 177.48 1081.75 85.32 1081.75 87.42"></polygon>
        <polygon class="u" points="1081.75 89.51 1023.05 177.48 1021.65 177.48 1081.75 87.42 1081.75 89.51"></polygon>
        <polygon class="v" points="1081.75 91.6 1024.45 177.48 1023.05 177.48 1081.75 89.51 1081.75 91.6"></polygon>
        <polygon class="at" points="1081.75 93.69 1025.84 177.48 1024.45 177.48 1081.75 91.6 1081.75 93.69"></polygon>
        <polygon class="ar" points="1081.75 95.79 1027.24 177.48 1025.84 177.48 1081.75 93.69 1081.75 95.79"></polygon>
        <polygon class="bi" points="1081.75 97.88 1028.64 177.48 1027.24 177.48 1081.75 95.79 1081.75 97.88"></polygon>
        <polygon class="cg" points="1081.75 99.97 1030.03 177.48 1028.64 177.48 1081.75 97.88 1081.75 99.97"></polygon>
        <polygon class="s" points="1081.75 102.07 1031.43 177.48 1030.03 177.48 1081.75 99.97 1081.75 102.07"></polygon>
        <polygon class="co" points="1081.75 104.16 1032.82 177.48 1031.43 177.48 1081.75 102.07 1081.75 104.16"></polygon>
        <polygon class="z" points="1081.75 106.25 1034.22 177.48 1032.82 177.48 1081.75 104.16 1081.75 106.25"></polygon>
        <polygon class="ch" points="1081.75 108.34 1035.62 177.48 1034.22 177.48 1081.75 106.25 1081.75 108.34"></polygon>
        <polygon class="cf" points="1081.75 110.44 1037.01 177.48 1035.62 177.48 1081.75 108.34 1081.75 110.44"></polygon>
        <polygon class="ai" points="1081.75 112.53 1038.41 177.48 1037.01 177.48 1081.75 110.44 1081.75 112.53"></polygon>
        <polygon class="be" points="1081.75 114.62 1039.81 177.48 1038.41 177.48 1081.75 112.53 1081.75 114.62"></polygon>
        <polygon class="cu" points="1081.75 116.72 1041.2 177.48 1039.81 177.48 1081.75 114.62 1081.75 116.72"></polygon>
        <polygon class="dl" points="1081.75 118.81 1042.6 177.48 1041.2 177.48 1081.75 116.72 1081.75 118.81"></polygon>
        <polygon class="af" points="1081.75 120.9 1044 177.48 1042.6 177.48 1081.75 118.81 1081.75 120.9"></polygon>
        <polygon class="cb" points="1081.75 122.99 1045.39 177.48 1044 177.48 1081.75 120.9 1081.75 122.99"></polygon>
        <polygon class="dz" points="1081.75 125.09 1046.79 177.48 1045.39 177.48 1081.75 122.99 1081.75 125.09"></polygon>
        <polygon class="aq" points="1081.75 127.18 1048.19 177.48 1046.79 177.48 1081.75 125.09 1081.75 127.18"></polygon>
        <polygon class="dn" points="1081.75 129.27 1049.58 177.48 1048.19 177.48 1081.75 127.18 1081.75 129.27"></polygon>
        <polygon class="ba" points="1081.75 131.37 1050.98 177.48 1049.58 177.48 1081.75 129.27 1081.75 131.37"></polygon>
        <polygon class="bt" points="1081.75 133.46 1052.37 177.48 1050.98 177.48 1081.75 131.37 1081.75 133.46"></polygon>
        <polygon class="ce" points="1081.75 135.55 1053.77 177.48 1052.37 177.48 1081.75 133.46 1081.75 135.55"></polygon>
        <polygon class="bo" points="1081.75 137.64 1055.17 177.48 1053.77 177.48 1081.75 135.55 1081.75 137.64"></polygon>
        <polygon class="dh" points="1081.75 139.74 1056.56 177.48 1055.17 177.48 1081.75 137.64 1081.75 139.74"></polygon>
        <polygon class="dt" points="1081.75 141.83 1057.96 177.48 1056.56 177.48 1081.75 139.74 1081.75 141.83"></polygon>
        <polygon class="ci" points="1081.75 143.92 1059.36 177.48 1057.96 177.48 1081.75 141.83 1081.75 143.92"></polygon>
        <polygon class="cm" points="1081.75 146.02 1060.75 177.48 1059.36 177.48 1081.75 143.92 1081.75 146.02"></polygon>
        <polygon class="ay" points="1081.75 148.11 1062.15 177.48 1060.75 177.48 1081.75 146.02 1081.75 148.11"></polygon>
        <polygon class="al" points="1081.75 150.2 1063.55 177.48 1062.15 177.48 1081.75 148.11 1081.75 150.2"></polygon>
        <polygon class="bs" points="1081.75 152.29 1064.94 177.48 1063.55 177.48 1081.75 150.2 1081.75 152.29"></polygon>
        <polygon class="dw" points="1081.75 154.39 1066.34 177.48 1064.94 177.48 1081.75 152.29 1081.75 154.39"></polygon>
        <polygon class="bv" points="1081.75 156.48 1067.74 177.48 1066.34 177.48 1081.75 154.39 1081.75 156.48"></polygon>
        <polygon class="au" points="1081.75 158.57 1069.13 177.48 1067.74 177.48 1081.75 156.48 1081.75 158.57"></polygon>
        <polygon class="dr" points="1081.75 160.67 1070.53 177.48 1069.13 177.48 1081.75 158.57 1081.75 160.67"></polygon>
        <polygon class="ca" points="1081.75 162.76 1071.93 177.48 1070.53 177.48 1081.75 160.67 1081.75 162.76"></polygon>
        <polygon class="dc" points="1081.75 164.85 1073.32 177.48 1071.93 177.48 1081.75 162.76 1081.75 164.85"></polygon>
        <polygon class="di" points="1081.75 166.94 1074.72 177.48 1073.32 177.48 1081.75 164.85 1081.75 166.94"></polygon>
        <polygon class="av" points="1081.75 169.04 1076.11 177.48 1074.72 177.48 1081.75 166.94 1081.75 169.04"></polygon>
        <polygon class="dq" points="1081.75 171.13 1077.51 177.48 1076.11 177.48 1081.75 169.04 1081.75 171.13"></polygon>
        <polygon class="bb" points="1081.75 173.22 1078.91 177.48 1077.51 177.48 1081.75 171.13 1081.75 173.22"></polygon>
        <polygon class="x" points="1081.75 175.31 1080.3 177.48 1078.91 177.48 1081.75 173.22 1081.75 175.31"></polygon>
        <polygon class="aw" points="1081.75 177.41 1081.7 177.48 1080.3 177.48 1081.75 175.31 1081.75 177.41"></polygon>
        <polygon class="ct" points="1081.7 177.48 1081.75 177.41 1081.75 177.48 1081.7 177.48"></polygon>
        <polygon class="ao" points="947.57 58.05 944.54 62.59 944.54 58.05 947.57 58.05"></polygon>
        <polygon class="bp" points="958.61 58.05 944.54 79.13 944.54 62.59 947.57 58.05 958.61 58.05"></polygon>
        <polygon class="dk" points="969.64 58.05 944.54 95.67 944.54 79.13 958.61 58.05 969.64 58.05"></polygon>
        <polygon class="ck" points="980.68 58.05 944.54 112.2 944.54 95.67 969.64 58.05 980.68 58.05"></polygon>
        <polygon class="dm" points="991.71 58.05 944.54 128.74 944.54 112.2 980.68 58.05 991.71 58.05"></polygon>
        <polygon class="dv" points="1002.74 58.05 947.98 140.13 944.54 137.84 944.54 128.74 991.71 58.05 1002.74 58.05"></polygon>
        <polygon class="by" points="1013.78 58.05 955.61 145.22 947.98 140.13 1002.74 58.05 1013.78 58.05"></polygon>
        <polygon class="bc" points="1024.81 58.05 963.25 150.32 955.61 145.22 1013.78 58.05 1024.81 58.05"></polygon>
        <polygon class="cj" points="1030.99 58.05 1034.35 60.29 971.87 153.93 968.66 153.93 963.25 150.32 1024.81 58.05 1030.99 58.05"></polygon>
        <polygon class="bq" points="1034.35 60.29 1041.98 65.39 982.9 153.93 971.87 153.93 1034.35 60.29"></polygon>
        <polygon class="bq" points="1041.98 65.39 1042.95 66.03 984.3 153.93 982.9 153.93 1041.98 65.39"></polygon>
        <polygon class="bn" points="1042.95 66.03 1043.92 66.68 985.7 153.93 984.3 153.93 1042.95 66.03"></polygon>
        <polygon class="bk" points="1043.92 66.68 1044.88 67.32 987.09 153.93 985.7 153.93 1043.92 66.68"></polygon>
        <polygon class="de" points="1044.88 67.32 1045.85 67.97 988.49 153.93 987.09 153.93 1044.88 67.32"></polygon>
        <polygon class="ak" points="1045.85 67.97 1046.82 68.61 989.89 153.93 988.49 153.93 1045.85 67.97"></polygon>
        <polygon class="dg" points="1046.82 68.61 1047.78 69.25 991.28 153.93 989.89 153.93 1046.82 68.61"></polygon>
        <polygon class="bh" points="1047.78 69.25 1048.75 69.9 992.68 153.93 991.28 153.93 1047.78 69.25"></polygon>
        <polygon class="r" points="1048.75 69.9 1049.71 70.54 994.08 153.93 992.68 153.93 1048.75 69.9"></polygon>
        <polygon class="an" points="1049.71 70.54 1050.68 71.19 995.47 153.93 994.08 153.93 1049.71 70.54"></polygon>
        <polygon class="cl" points="1050.68 71.19 1051.65 71.83 996.87 153.93 995.47 153.93 1050.68 71.19"></polygon>
        <polygon class="ap" points="1051.65 71.83 1052.61 72.48 998.26 153.93 996.87 153.93 1051.65 71.83"></polygon>
        <polygon class="dp" points="1052.61 72.48 1053.58 73.12 999.66 153.93 998.26 153.93 1052.61 72.48"></polygon>
        <polygon class="aj" points="1053.58 73.12 1054.55 73.77 1001.06 153.93 999.66 153.93 1053.58 73.12"></polygon>
        <polygon class="cp" points="1054.55 73.77 1055.11 74.15 1055.11 75.01 1002.45 153.93 1001.06 153.93 1054.55 73.77"></polygon>
        <polygon class="bx" points="1055.11 77.1 1003.85 153.93 1002.45 153.93 1055.11 75.01 1055.11 77.1"></polygon>
        <polygon class="ac" points="1055.11 79.19 1005.25 153.93 1003.85 153.93 1055.11 77.1 1055.11 79.19"></polygon>
        <polygon class="cw" points="1055.11 81.29 1006.64 153.93 1005.25 153.93 1055.11 79.19 1055.11 81.29"></polygon>
        <polygon class="df" points="1055.11 83.38 1008.04 153.93 1006.64 153.93 1055.11 81.29 1055.11 83.38"></polygon>
        <polygon class="da" points="1055.11 85.47 1009.44 153.93 1008.04 153.93 1055.11 83.38 1055.11 85.47"></polygon>
        <polygon class="bz" points="1055.11 87.57 1010.83 153.93 1009.44 153.93 1055.11 85.47 1055.11 87.57"></polygon>
        <polygon class="cz" points="1055.11 89.66 1012.23 153.93 1010.83 153.93 1055.11 87.57 1055.11 89.66"></polygon>
        <polygon class="ds" points="1055.11 91.75 1013.63 153.93 1012.23 153.93 1055.11 89.66 1055.11 91.75"></polygon>
        <polygon class="bl" points="1055.11 93.84 1015.02 153.93 1013.63 153.93 1055.11 91.75 1055.11 93.84"></polygon>
        <polygon class="ab" points="1055.11 95.94 1016.42 153.93 1015.02 153.93 1055.11 93.84 1055.11 95.94"></polygon>
        <polygon class="cn" points="1055.11 98.03 1017.81 153.93 1016.42 153.93 1055.11 95.94 1055.11 98.03"></polygon>
        <polygon class="ag" points="1055.11 100.12 1019.21 153.93 1017.81 153.93 1055.11 98.03 1055.11 100.12"></polygon>
        <polygon class="ae" points="1055.11 102.22 1020.61 153.93 1019.21 153.93 1055.11 100.12 1055.11 102.22"></polygon>
        <polygon class="bj" points="1055.11 104.31 1022 153.93 1020.61 153.93 1055.11 102.22 1055.11 104.31"></polygon>
        <polygon class="w" points="1055.11 106.4 1023.4 153.93 1022 153.93 1055.11 104.31 1055.11 106.4"></polygon>
        <polygon class="bg" points="1055.11 108.49 1024.8 153.93 1023.4 153.93 1055.11 106.4 1055.11 108.49"></polygon>
        <polygon class="cq" points="1055.11 110.59 1026.19 153.93 1024.8 153.93 1055.11 108.49 1055.11 110.59"></polygon>
        <polygon class="am" points="1055.11 112.68 1027.59 153.93 1026.19 153.93 1055.11 110.59 1055.11 112.68"></polygon>
        <polygon class="cy" points="1055.11 114.77 1028.99 153.93 1027.59 153.93 1055.11 112.68 1055.11 114.77"></polygon>
        <polygon class="bf" points="1055.11 116.87 1030.38 153.93 1028.99 153.93 1055.11 114.77 1055.11 116.87"></polygon>
        <polygon class="bw" points="1055.11 118.96 1031.78 153.93 1030.38 153.93 1055.11 116.87 1055.11 118.96"></polygon>
        <polygon class="ah" points="1055.11 121.05 1033.18 153.93 1031.78 153.93 1055.11 118.96 1055.11 121.05"></polygon>
        <polygon class="dd" points="1055.11 123.14 1034.57 153.93 1033.18 153.93 1055.11 121.05 1055.11 123.14"></polygon>
        <polygon class="br" points="1055.11 125.24 1035.97 153.93 1034.57 153.93 1055.11 123.14 1055.11 125.24"></polygon>
        <polygon class="cv" points="1055.11 127.33 1037.37 153.93 1035.97 153.93 1055.11 125.24 1055.11 127.33"></polygon>
        <polygon class="u" points="1055.11 129.42 1038.76 153.93 1037.37 153.93 1055.11 127.33 1055.11 129.42"></polygon>
        <polygon class="v" points="1055.11 131.52 1040.16 153.93 1038.76 153.93 1055.11 129.42 1055.11 131.52"></polygon>
        <polygon class="at" points="1055.11 133.61 1041.55 153.93 1040.16 153.93 1055.11 131.52 1055.11 133.61"></polygon>
        <polygon class="ar" points="1055.11 135.7 1042.95 153.93 1041.55 153.93 1055.11 133.61 1055.11 135.7"></polygon>
        <polygon class="bi" points="1055.11 137.79 1044.35 153.93 1042.95 153.93 1055.11 135.7 1055.11 137.79"></polygon>
        <polygon class="cg" points="1055.11 139.89 1045.74 153.93 1044.35 153.93 1055.11 137.79 1055.11 139.89"></polygon>
        <polygon class="s" points="1055.11 141.98 1047.14 153.93 1045.74 153.93 1055.11 139.89 1055.11 141.98"></polygon>
        <polygon class="co" points="1055.11 144.07 1048.54 153.93 1047.14 153.93 1055.11 141.98 1055.11 144.07"></polygon>
        <polygon class="z" points="1055.11 146.17 1049.93 153.93 1048.54 153.93 1055.11 144.07 1055.11 146.17"></polygon>
        <polygon class="ch" points="1055.11 148.26 1051.33 153.93 1049.93 153.93 1055.11 146.17 1055.11 148.26"></polygon>
        <polygon class="cf" points="1055.11 150.35 1052.73 153.93 1051.33 153.93 1055.11 148.26 1055.11 150.35"></polygon>
        <polygon class="ai" points="1055.11 152.44 1054.12 153.93 1052.73 153.93 1055.11 150.35 1055.11 152.44"></polygon>
        <polygon class="be" points="1054.12 153.93 1055.11 152.44 1055.11 153.93 1054.12 153.93"></polygon>
      </g>
    </g>
    <g class="ed">
      <g class="em">
        <polygon class="ce" points="1046.33 188.64 1045.36 190.09 1045.36 188.64 1046.33 188.64"></polygon>
        <polygon class="bo" points="1047.72 188.64 1045.36 192.18 1045.36 190.09 1046.33 188.64 1047.72 188.64"></polygon>
        <polygon class="dh" points="1049.12 188.64 1045.36 194.28 1045.36 192.18 1047.72 188.64 1049.12 188.64"></polygon>
        <polygon class="dt" points="1050.52 188.64 1045.36 196.37 1045.36 194.28 1049.12 188.64 1050.52 188.64"></polygon>
        <polygon class="ci" points="1051.91 188.64 1045.36 198.46 1045.36 196.37 1050.52 188.64 1051.91 188.64"></polygon>
        <polygon class="cm" points="1053.31 188.64 1045.36 200.55 1045.36 198.46 1051.91 188.64 1053.31 188.64"></polygon>
        <polygon class="ay" points="1054.7 188.64 1045.36 202.65 1045.36 200.55 1053.31 188.64 1054.7 188.64"></polygon>
        <polygon class="al" points="1056.1 188.64 1045.36 204.74 1045.36 202.65 1054.7 188.64 1056.1 188.64"></polygon>
        <polygon class="bs" points="1057.5 188.64 1045.51 206.6 1045.36 206.49 1045.36 204.74 1056.1 188.64 1057.5 188.64"></polygon>
        <polygon class="dw" points="1057.71 188.64 1058.53 189.18 1046.48 207.24 1045.51 206.6 1057.5 188.64 1057.71 188.64"></polygon>
        <rect class="bv" x="1042.13" y="197.95" width="21.71" height="1.16" transform="translate(303.39 964.24) rotate(-56.29)"></rect>
        <rect class="au" x="1043.1" y="198.6" width="21.71" height="1.16" transform="translate(303.29 965.33) rotate(-56.29)"></rect>
        <rect class="dr" x="1044.06" y="199.24" width="21.71" height="1.16" transform="translate(303.18 966.42) rotate(-56.29)"></rect>
        <rect class="ca" x="1045.03" y="199.89" width="21.71" height="1.16" transform="translate(303.07 967.51) rotate(-56.29)"></rect>
        <rect class="dc" x="1046" y="200.53" width="21.71" height="1.16" transform="translate(302.97 968.6) rotate(-56.29)"></rect>
        <rect class="di" x="1046.96" y="201.18" width="21.71" height="1.16" transform="translate(302.86 969.69) rotate(-56.29)"></rect>
        <rect class="av" x="1047.93" y="201.82" width="21.71" height="1.16" transform="translate(302.75 970.78) rotate(-56.29)"></rect>
        <polygon class="dq" points="1065.29 193.69 1066.26 194.34 1054.33 212.22 1053.94 212.22 1053.24 211.76 1065.29 193.69"></polygon>
        <polygon class="bb" points="1066.26 194.34 1067.23 194.98 1055.73 212.22 1054.33 212.22 1066.26 194.34"></polygon>
        <polygon class="x" points="1067.23 194.98 1068.19 195.63 1057.12 212.22 1055.73 212.22 1067.23 194.98"></polygon>
        <polygon class="aw" points="1068.19 195.63 1069.16 196.27 1058.52 212.22 1057.12 212.22 1068.19 195.63"></polygon>
        <polygon class="ct" points="1069.16 196.27 1070.12 196.92 1059.92 212.22 1058.52 212.22 1069.16 196.27"></polygon>
        <polygon class="t" points="1070.12 196.92 1071.09 197.56 1061.31 212.22 1059.92 212.22 1070.12 196.92"></polygon>
        <polygon class="cx" points="1071.09 197.56 1072.06 198.21 1062.71 212.22 1061.31 212.22 1071.09 197.56"></polygon>
        <polygon class="cc" points="1072.06 198.21 1073.02 198.85 1064.1 212.22 1062.71 212.22 1072.06 198.21"></polygon>
        <polygon class="du" points="1073.02 198.85 1073.99 199.5 1065.5 212.22 1064.1 212.22 1073.02 198.85"></polygon>
        <polygon class="dy" points="1073.99 199.5 1074.96 200.14 1066.9 212.22 1065.5 212.22 1073.99 199.5"></polygon>
        <polygon class="dj" points="1074.96 200.14 1075.92 200.79 1068.29 212.22 1066.9 212.22 1074.96 200.14"></polygon>
        <polygon class="cd" points="1075.92 200.79 1076.89 201.43 1069.69 212.22 1068.29 212.22 1075.92 200.79"></polygon>
        <polygon class="aa" points="1076.89 201.43 1077.85 202.08 1071.09 212.22 1069.69 212.22 1076.89 201.43"></polygon>
        <polygon class="ax" points="1077.85 202.08 1078.82 202.72 1072.48 212.22 1071.09 212.22 1077.85 202.08"></polygon>
        <polygon class="y" points="1078.82 202.72 1079.79 203.37 1073.88 212.22 1072.48 212.22 1078.82 202.72"></polygon>
        <polygon class="az" points="1079.79 203.37 1080.75 204.01 1075.28 212.22 1073.88 212.22 1079.79 203.37"></polygon>
        <polygon class="do" points="1080.75 204.01 1081.52 204.52 1081.52 204.95 1076.67 212.22 1075.28 212.22 1080.75 204.01"></polygon>
        <polygon class="ea" points="1081.52 207.04 1078.07 212.22 1076.67 212.22 1081.52 204.95 1081.52 207.04"></polygon>
        <polygon class="as" points="1081.52 209.14 1079.47 212.22 1078.07 212.22 1081.52 207.04 1081.52 209.14"></polygon>
        <polygon class="bm" points="1081.52 211.23 1080.86 212.22 1079.47 212.22 1081.52 209.14 1081.52 211.23"></polygon>
        <polygon class="bm" points="1080.86 212.22 1081.52 211.23 1081.52 212.22 1080.86 212.22"></polygon>
      </g>
    </g>
    <g class="ed">
      <g class="el">
        <polygon class="ar" points="1095.99 74.45 1095.66 74.93 1095.66 74.45 1095.99 74.45"></polygon>
        <polygon class="bi" points="1097.38 74.45 1095.66 77.02 1095.66 74.93 1095.99 74.45 1097.38 74.45"></polygon>
        <polygon class="cg" points="1098.78 74.45 1095.66 79.12 1095.66 77.02 1097.38 74.45 1098.78 74.45"></polygon>
        <polygon class="s" points="1100.18 74.45 1095.66 81.21 1095.66 79.12 1098.78 74.45 1100.18 74.45"></polygon>
        <polygon class="co" points="1101.57 74.45 1095.66 83.3 1095.66 81.21 1100.18 74.45 1101.57 74.45"></polygon>
        <polygon class="z" points="1102.97 74.45 1095.66 85.39 1095.66 83.3 1101.57 74.45 1102.97 74.45"></polygon>
        <polygon class="ch" points="1104.37 74.45 1095.66 87.49 1095.66 85.39 1102.97 74.45 1104.37 74.45"></polygon>
        <polygon class="cf" points="1105.76 74.45 1095.66 89.58 1095.66 87.49 1104.37 74.45 1105.76 74.45"></polygon>
        <polygon class="ai" points="1107.16 74.45 1095.66 91.67 1095.66 89.58 1105.76 74.45 1107.16 74.45"></polygon>
        <polygon class="be" points="1108.55 74.45 1095.66 93.77 1095.66 91.67 1107.16 74.45 1108.55 74.45"></polygon>
        <polygon class="cu" points="1109.95 74.45 1095.66 95.86 1095.66 93.77 1108.55 74.45 1109.95 74.45"></polygon>
        <polygon class="dl" points="1111.35 74.45 1095.66 97.95 1095.66 95.86 1109.95 74.45 1111.35 74.45"></polygon>
        <polygon class="af" points="1112.74 74.45 1095.66 100.04 1095.66 97.95 1111.35 74.45 1112.74 74.45"></polygon>
        <polygon class="cb" points="1114.14 74.45 1095.66 102.14 1095.66 100.04 1112.74 74.45 1114.14 74.45"></polygon>
        <polygon class="dz" points="1115.54 74.45 1095.66 104.23 1095.66 102.14 1114.14 74.45 1115.54 74.45"></polygon>
        <polygon class="aq" points="1116.93 74.45 1095.66 106.32 1095.66 104.23 1115.54 74.45 1116.93 74.45"></polygon>
        <polygon class="dn" points="1118.33 74.45 1095.66 108.42 1095.66 106.32 1116.93 74.45 1118.33 74.45"></polygon>
        <polygon class="ba" points="1119.73 74.45 1095.66 110.51 1095.66 108.42 1118.33 74.45 1119.73 74.45"></polygon>
        <polygon class="bt" points="1121.12 74.45 1096.4 111.51 1095.66 111.02 1095.66 110.51 1119.73 74.45 1121.12 74.45"></polygon>
        <polygon class="ce" points="1122.52 74.45 1097.36 112.15 1096.4 111.51 1121.12 74.45 1122.52 74.45"></polygon>
        <polygon class="bo" points="1123.92 74.45 1098.33 112.79 1097.36 112.15 1122.52 74.45 1123.92 74.45"></polygon>
        <polygon class="dh" points="1125.31 74.45 1099.29 113.44 1098.33 112.79 1123.92 74.45 1125.31 74.45"></polygon>
        <polygon class="dt" points="1126.71 74.45 1100.26 114.08 1099.29 113.44 1125.31 74.45 1126.71 74.45"></polygon>
        <polygon class="ci" points="1128.11 74.45 1101.23 114.73 1100.26 114.08 1126.71 74.45 1128.11 74.45"></polygon>
        <polygon class="cm" points="1129.5 74.45 1102.19 115.37 1101.23 114.73 1128.11 74.45 1129.5 74.45"></polygon>
        <polygon class="ay" points="1130.9 74.45 1103.16 116.02 1102.19 115.37 1129.5 74.45 1130.9 74.45"></polygon>
        <polygon class="al" points="1132.29 74.45 1104.13 116.66 1103.16 116.02 1130.9 74.45 1132.29 74.45"></polygon>
        <polygon class="bs" points="1133.69 74.45 1105.09 117.31 1104.13 116.66 1132.29 74.45 1133.69 74.45"></polygon>
        <polygon class="dw" points="1135.09 74.45 1106.06 117.95 1105.09 117.31 1133.69 74.45 1135.09 74.45"></polygon>
        <polygon class="bv" points="1136.48 74.45 1107.02 118.6 1106.06 117.95 1135.09 74.45 1136.48 74.45"></polygon>
        <polygon class="au" points="1137.88 74.45 1107.99 119.24 1107.02 118.6 1136.48 74.45 1137.88 74.45"></polygon>
        <polygon class="dr" points="1138.87 75.06 1108.96 119.89 1107.99 119.24 1137.88 74.45 1138.87 74.45 1138.87 75.06"></polygon>
        <polygon class="ca" points="1138.87 77.15 1109.92 120.53 1108.96 119.89 1138.87 75.06 1138.87 77.15"></polygon>
        <polygon class="dc" points="1138.87 79.25 1110.89 121.18 1109.92 120.53 1138.87 77.15 1138.87 79.25"></polygon>
        <polygon class="di" points="1138.87 81.34 1111.86 121.82 1110.89 121.18 1138.87 79.25 1138.87 81.34"></polygon>
        <polygon class="av" points="1138.87 83.43 1112.82 122.47 1111.86 121.82 1138.87 81.34 1138.87 83.43"></polygon>
        <polygon class="dq" points="1138.87 85.52 1113.79 123.11 1112.82 122.47 1138.87 83.43 1138.87 85.52"></polygon>
        <polygon class="bb" points="1138.87 87.62 1114.75 123.76 1113.79 123.11 1138.87 85.52 1138.87 87.62"></polygon>
        <polygon class="x" points="1138.87 89.71 1115.72 124.4 1114.75 123.76 1138.87 87.62 1138.87 89.71"></polygon>
        <polygon class="aw" points="1138.87 91.8 1116.69 125.04 1115.72 124.4 1138.87 89.71 1138.87 91.8"></polygon>
        <polygon class="ct" points="1138.87 93.9 1117.65 125.69 1116.69 125.04 1138.87 91.8 1138.87 93.9"></polygon>
        <polygon class="t" points="1138.87 95.99 1118.62 126.33 1117.65 125.69 1138.87 93.9 1138.87 95.99"></polygon>
        <polygon class="cx" points="1138.87 98.08 1120 126.36 1118.65 126.36 1118.62 126.33 1138.87 95.99 1138.87 98.08"></polygon>
        <polygon class="cc" points="1138.87 100.17 1121.4 126.36 1120 126.36 1138.87 98.08 1138.87 100.17"></polygon>
        <polygon class="du" points="1138.87 102.27 1122.79 126.36 1121.4 126.36 1138.87 100.17 1138.87 102.27"></polygon>
        <polygon class="dy" points="1138.87 104.36 1124.19 126.36 1122.79 126.36 1138.87 102.27 1138.87 104.36"></polygon>
        <polygon class="dj" points="1138.87 106.45 1125.59 126.36 1124.19 126.36 1138.87 104.36 1138.87 106.45"></polygon>
        <polygon class="cd" points="1138.87 108.55 1126.98 126.36 1125.59 126.36 1138.87 106.45 1138.87 108.55"></polygon>
        <polygon class="aa" points="1138.87 110.64 1128.38 126.36 1126.98 126.36 1138.87 108.55 1138.87 110.64"></polygon>
        <polygon class="ax" points="1138.87 112.73 1129.78 126.36 1128.38 126.36 1138.87 110.64 1138.87 112.73"></polygon>
        <polygon class="y" points="1138.87 114.82 1131.17 126.36 1129.78 126.36 1138.87 112.73 1138.87 114.82"></polygon>
        <polygon class="az" points="1138.87 116.92 1132.57 126.36 1131.17 126.36 1138.87 114.82 1138.87 116.92"></polygon>
        <polygon class="do" points="1138.87 119.01 1133.97 126.36 1132.57 126.36 1138.87 116.92 1138.87 119.01"></polygon>
        <polygon class="ea" points="1138.87 121.1 1135.36 126.36 1133.97 126.36 1138.87 119.01 1138.87 121.1"></polygon>
        <polygon class="as" points="1138.87 123.2 1136.76 126.36 1135.36 126.36 1138.87 121.1 1138.87 123.2"></polygon>
        <polygon class="bm" points="1138.87 125.29 1138.15 126.36 1136.76 126.36 1138.87 123.2 1138.87 125.29"></polygon>
        <polygon class="bm" points="1138.15 126.36 1138.87 125.29 1138.87 126.36 1138.15 126.36"></polygon>
      </g>
    </g>
    <g class="ed">
      <g class="ee">
        <polygon class="bm" points="1096.48 188.81 1095.44 190.37 1095.44 188.81 1096.48 188.81"></polygon>
        <polygon class="bm" points="1132.4 188.81 1136.45 191.51 1136.45 217.36 1124.27 235.61 1095.44 216.37 1095.44 190.37 1096.48 188.81 1132.4 188.81"></polygon>
        <polygon class="bm" points="1127.77 237.94 1124.27 235.61 1136.45 217.36 1136.45 237.94 1127.77 237.94"></polygon>
      </g>
    </g>
    <g class="ed">
      <g class="en">
        <polygon class="bm" points="1157.84 137.52 1179.9 152.24 1162.92 177.69 1134.27 177.69 1134.27 137.52 1157.84 137.52"></polygon>
        <polygon class="bm" points="1179.9 152.24 1180.75 152.8 1180.75 177.69 1162.92 177.69 1179.9 152.24"></polygon>
      </g>
    </g>
    <path class="cr" d="M1073.24,145.51c0-4.63,3.75-8.38,8.38-8.38,3.49,0,6.47,2.13,7.74,5.17,2.37-2.1,5.23-3.65,8.38-4.47-2.88-6.02-9.02-10.2-16.12-10.2-9.86,0-17.88,8.02-17.88,17.88,0,2.86.69,5.55,1.89,7.95,2.36-2.11,5.21-3.68,8.36-4.52-.47-1.05-.75-2.2-.75-3.43"></path>
    <path class="db" d="M1084.4,148.92c1.19-2.54,2.89-4.78,4.96-6.62-1.26-3.03-4.25-5.17-7.74-5.17-4.63,0-8.38,3.75-8.38,8.38,0,1.22.28,2.38.75,3.43,1.68-.45,3.42-.7,5.24-.7s3.51.25,5.17.69"></path>
    <path class="cr" d="M1102.88,139.7c-.56,0-1.11.03-1.65.08-.43.04-.85.1-1.27.18-.42.07-.84.15-1.25.25-3.38.81-6.4,2.58-8.73,5.02-1.26,1.32-2.32,2.83-3.14,4.48.53.21,1.04.45,1.54.7,2.46,1.24,4.65,2.96,6.42,5.04.59-2.24,2.06-4.09,4.04-5.18.47-.26.97-.48,1.49-.64.44-.14.9-.25,1.37-.32.39-.06.78-.12,1.19-.12,4.63,0,8.38,3.75,8.38,8.38s-3.75,8.38-8.38,8.38c-1.27,0-2.46-.3-3.54-.81.2,1.14.32,2.31.32,3.51,0,2.19-.36,4.3-1,6.28,1.35.33,2.76.52,4.21.52,9.86,0,17.88-8.02,17.88-17.88s-8.02-17.88-17.88-17.88"></path>
    <path class="db" d="M1102.88,149.2c-.41,0-.8.06-1.19.12-.47.07-.92.18-1.37.32-.52.17-1.01.38-1.49.64-1.97,1.1-3.45,2.95-4.04,5.18.3.35.58.72.85,1.1.27.36.53.73.77,1.11.24.37.47.74.69,1.13,1.08,1.95,1.83,4.09,2.23,6.35,1.08.51,2.27.81,3.54.81,4.63,0,8.38-3.75,8.38-8.38s-3.75-8.38-8.38-8.38"></path>
    <path class="dx" d="M1086.25,164.11s0-.02,0-.02h0s0,.01.01.02"></path>
    <path class="dx" d="M1085.36,162.99c.32.34.62.7.87,1.1h0c-.16-.4-.31-.8-.44-1.21-.15.04-.29.08-.44.11"></path>
    <path class="cr" d="M1095.86,162.14c-.28-.43-.52-.87-.72-1.35-.09-.22-.14-.45-.21-.67-.1-.19-.22-.37-.33-.55-.22-.38-.45-.75-.7-1.1-1.86-2.67-4.43-4.81-7.44-6.15-.19-.09-.39-.17-.59-.25-.4-.16-.79-.31-1.2-.44-.4-.13-.82-.23-1.23-.33-1.35-.33-2.76-.52-4.21-.52-1.28,0-2.53.14-3.74.4-3.27.7-6.2,2.3-8.54,4.51-.31.3-.62.61-.91.93-.29.32-.57.65-.84.99-2.41,3.04-3.85,6.88-3.85,11.05,0,9.86,8.02,17.88,17.88,17.88,7.04,0,13.12-4.09,16.03-10.01.19-.38.37-.76.53-1.16.16-.39.31-.79.44-1.2.56-1.74.88-3.59.88-5.51,0-2.3-.45-4.5-1.25-6.52M1079.23,177.05c-4.63,0-8.38-3.75-8.38-8.38,0-1.84.61-3.53,1.62-4.92.26-.35.52-.7.83-1.01.33-.33.7-.63,1.09-.9,1.37-.97,3.03-1.56,4.84-1.56,1.27,0,2.46.3,3.54.81.53.25,1.02.55,1.48.9.4.3.77.63,1.11,1,.15-.03.29-.08.44-.11.13.41.29.81.44,1.21,0,0,0,.02,0,.02.23.36.44.74.61,1.13.13.29.22.59.32.89.26.81.43,1.65.43,2.54,0,.14-.03.26-.04.4-.03.59-.12,1.16-.26,1.72-.94,3.6-4.19,6.26-8.08,6.26"></path>
    <path class="dx" d="M1095.14,160.8c.2.48.44.92.72,1.35-.19-.49-.41-.96-.64-1.42-.03.02-.06.05-.08.07"></path>
    <path class="dx" d="M1094.93,160.12c.07.22.12.46.21.67.03-.03.05-.05.08-.07-.1-.2-.18-.4-.29-.6"></path>
    <path class="db" d="M1087.18,166.13c-.1-.3-.19-.61-.32-.89-.03.01-.07.02-.1.03.14.29.27.58.42.86"></path>
    <path class="db" d="M1086.75,165.27s.07-.02.1-.03c-.18-.39-.38-.77-.61-1.13.15.4.33.78.51,1.16"></path>
    <path class="db" d="M1087.18,166.13c-.15-.28-.28-.57-.42-.86-.18-.38-.35-.76-.51-1.16,0,0,0-.01-.01-.02-.26-.39-.56-.75-.87-1.1-.34-.37-.71-.69-1.11-1-.46-.35-.96-.65-1.48-.9-1.08-.5-2.27-.81-3.54-.81-1.81,0-3.47.58-4.84,1.56-.39.28-.76.57-1.09.9-.31.31-.57.66-.83,1.01-1.01,1.38-1.62,3.07-1.62,4.91,0,4.63,3.75,8.38,8.38,8.38,3.89,0,7.14-2.67,8.08-6.26.14-.55.23-1.13.26-1.72,0-.14.04-.26.04-.4,0-.89-.17-1.73-.43-2.54"></path>
    <path class="ad" d="M1003.93,97.82c1.65-.43,3.38-.69,5.17-.69s3.56.26,5.24.71c.47-1.05.75-2.2.75-3.43,0-4.63-3.75-8.38-8.38-8.38-3.49,0-6.48,2.14-7.74,5.17,2.08,1.84,3.77,4.08,4.96,6.62"></path>
    <path class="ad" d="M989.49,99.19c-.47-.26-.96-.47-1.48-.64-.44-.14-.89-.25-1.37-.32-.39-.06-.78-.12-1.19-.12-4.63,0-8.38,3.75-8.38,8.38s3.75,8.38,8.38,8.38c1.27,0,2.46-.3,3.54-.81.39-2.27,1.15-4.41,2.22-6.35.21-.39.45-.76.69-1.13.25-.38.5-.75.77-1.11.27-.37.55-.74.85-1.1-.58-2.24-2.06-4.09-4.04-5.18"></path>
    <path class="bu" d="M1002.09,112.99s0,.02-.01.03c0,0,.01-.02.02-.03h0Z"></path>
    <path class="bu" d="M1002.97,111.9c-.15-.03-.29-.08-.44-.11-.13.41-.28.81-.44,1.21h0c.26-.39.55-.75.87-1.09"></path>
    <path class="cs" d="M1006.7,86.03c4.63,0,8.38,3.75,8.38,8.38,0,1.23-.28,2.38-.75,3.43,3.15.84,6,2.41,8.36,4.52,1.2-2.4,1.88-5.09,1.88-7.95,0-9.86-8.02-17.88-17.88-17.88-7.11,0-13.25,4.18-16.12,10.2,3.15.82,6.01,2.37,8.38,4.47,1.26-3.03,4.25-5.17,7.74-5.17"></path>
    <path class="cs" d="M985.45,98.11c.41,0,.8.06,1.19.12.47.07.92.18,1.37.32.52.17,1.01.38,1.48.64,1.97,1.1,3.45,2.95,4.04,5.18,1.77-2.09,3.95-3.8,6.42-5.04.5-.26,1.01-.49,1.54-.71-.81-1.65-1.87-3.16-3.13-4.48-2.33-2.44-5.34-4.21-8.73-5.02-.41-.1-.83-.18-1.25-.25-.42-.07-.84-.14-1.27-.18-.54-.05-1.09-.08-1.65-.08-9.86,0-17.88,8.02-17.88,17.88s8.02,17.88,17.88,17.88c1.45,0,2.86-.19,4.21-.52-.64-1.98-1-4.09-1-6.28,0-1.2.13-2.37.32-3.51-1.08.51-2.27.81-3.54.81-4.63,0-8.38-3.75-8.38-8.38s3.75-8.38,8.38-8.38"></path>
    <path class="cs" d="M1023.13,106.52c-.27-.34-.55-.67-.84-.99-.29-.32-.59-.63-.91-.93-2.34-2.22-5.27-3.82-8.54-4.52-1.21-.26-2.46-.4-3.74-.4-1.45,0-2.86.19-4.21.52-.42.1-.83.2-1.23.33-.41.13-.81.28-1.2.44-.2.08-.4.16-.59.25-3.01,1.34-5.58,3.48-7.44,6.15-.25.36-.47.73-.69,1.1-.11.18-.23.36-.33.55-.07.22-.12.46-.21.67-.2.47-.44.91-.72,1.34-.8,2.03-1.25,4.23-1.25,6.54,0,1.92.31,3.77.87,5.5.13.41.28.81.44,1.2.16.4.34.78.53,1.16,2.92,5.92,9,10.02,16.03,10.02,9.86,0,17.88-8.02,17.88-17.88,0-4.17-1.45-8.01-3.85-11.05M1009.1,125.95c-3.89,0-7.14-2.67-8.08-6.26-.15-.55-.23-1.12-.26-1.72,0-.14-.04-.26-.04-.4,0-.89.18-1.74.44-2.54.09-.3.18-.6.31-.89.18-.39.38-.77.61-1.13,0,0,0-.02.01-.03.16-.4.31-.79.44-1.21.15.04.29.08.44.11.34-.37.71-.69,1.11-1,.46-.35.96-.65,1.48-.9,1.08-.51,2.27-.81,3.54-.81,1.81,0,3.47.59,4.84,1.56.38.27.75.57,1.09.9.31.31.57.65.83,1.01,1.01,1.38,1.62,3.07,1.62,4.91,0,4.63-3.75,8.38-8.38,8.38"></path>
    <path class="bu" d="M992.47,111.04c.27-.42.52-.87.71-1.34-.03-.03-.05-.05-.08-.07-.23.46-.44.93-.63,1.41"></path>
    <path class="bu" d="M993.1,109.63s.05.05.08.07c.09-.21.14-.45.21-.67-.1.19-.19.4-.29.6"></path>
    <path class="ad" d="M1015.86,112.66c-.26-.35-.53-.7-.83-1.01-.33-.33-.7-.62-1.09-.9-1.37-.98-3.03-1.56-4.84-1.56-1.27,0-2.46.3-3.54.81-.53.25-1.02.55-1.48.9-.4.3-.77.63-1.11,1-.32.34-.62.7-.87,1.09,0,0-.01.02-.02.03-.23.36-.43.73-.61,1.13-.13.28-.22.58-.31.88-.26.81-.43,1.65-.43,2.54,0,.14.03.26.04.4.03.59.12,1.16.26,1.72.94,3.6,4.19,6.26,8.08,6.26,4.63,0,8.38-3.75,8.38-8.38,0-1.84-.61-3.53-1.62-4.91"></path>
  </g>
</svg>
